Coordinates
version=1
nRows=17
nColumns=38
inDegrees=no

Units are S.I. units (second, meters, Newtons, ...)
If the header above contains a line with 'inDegrees', this indicates whether rotational values are in degrees (yes) or radians (no).

endheader
time	pelvis_tilt	pelvis_list	pelvis_rotation	pelvis_tx	pelvis_ty	pelvis_tz	hip_flexion_r	hip_adduction_r	hip_rotation_r	knee_angle_r	ankle_angle_r	subtalar_angle_r	mtp_angle_r	hip_flexion_l	hip_adduction_l	hip_rotation_l	knee_angle_l	ankle_angle_l	subtalar_angle_l	mtp_angle_l	lumbar_extension	lumbar_bending	lumbar_rotation	arm_flex_r	arm_add_r	arm_rot_r	elbow_flex_r	pro_sup_r	wrist_flex_r	wrist_dev_r	arm_flex_l	arm_add_l	arm_rot_l	elbow_flex_l	pro_sup_l	wrist_flex_l	wrist_dev_l
4.4	-1.44421	1.46498	-0.178013	0.687098	0.737083	0.975267	0.0319938	0.0315124	-0.242806	0.312762	0.152733	0	0	-0.129695	-0.0661333	-0.206804	0	0.0667382	0	0	-0.132447	0.168677	0.127922	-0.429622	-0.340917	-0.10877	1.62086	1.24883	0	0	-0.26159	-0.317277	0.177732	1.50291	1.20438	0	0
4.41	-1.43453	1.4644	-0.188297	0.686839	0.737243	0.975316	0.0306515	0.0321481	-0.242764	0.312185	0.152463	0	0	-0.13079	-0.0667361	-0.207579	0	0.0674597	0	0	-0.134171	0.168137	0.129407	-0.422584	-0.338803	-0.110878	1.62009	1.25584	0	0	-0.252277	-0.319079	0.181733	1.49991	1.2021	0	0
4.42	-1.42924	1.46405	-0.194252	0.6866	0.737431	0.975334	0.0299801	0.032714	-0.242259	0.311769	0.151995	0	0	-0.131306	-0.067094	-0.208283	0	0.0677059	0	0	-0.135394	0.16744	0.130647	-0.415056	-0.337239	-0.111782	1.61897	1.26322	0	0	-0.243071	-0.320684	0.185497	1.4966	1.1994	0	0
4.43	-1.42505	1.46392	-0.199056	0.68638	0.737599	0.975334	0.0295206	0.0330388	-0.241988	0.311357	0.151273	0	0	-0.131704	-0.0672379	-0.209035	0	0.0676574	0	0	-0.136323	0.166584	0.131434	-0.407294	-0.336131	-0.11122	1.61729	1.27194	0	0	-0.233907	-0.321969	0.188453	1.49328	1.196	0	0
4.44	-1.42101	1.46382	-0.203764	0.686159	0.737739	0.975336	0.0290167	0.0333001	-0.242031	0.310808	0.150985	0	0	-0.132275	-0.0674179	-0.210128	0	0.067627	0	0	-0.137155	0.165705	0.132136	-0.399033	-0.335209	-0.110096	1.61449	1.28051	0	0	-0.224653	-0.323032	0.19141	1.48971	1.19397	0	0
4.45	-1.41851	1.46367	-0.207105	0.685942	0.737889	0.97534	0.0285974	0.0336413	-0.241858	0.310128	0.151114	0	0	-0.132603	-0.0676555	-0.211669	0	0.0677016	0	0	-0.137853	0.164908	0.132979	-0.390276	-0.334507	-0.108362	1.61084	1.28709	0	0	-0.215361	-0.324034	0.194269	1.48596	1.19277	0	0
4.46	-1.4167	1.46336	-0.209956	0.68571	0.738064	0.975354	0.0281747	0.0342567	-0.241066	0.309336	0.151462	0	0	-0.132821	-0.0680401	-0.212907	0	0.0677836	0	0	-0.138614	0.164248	0.13407	-0.381054	-0.333979	-0.106312	1.60669	1.29485	0	0	-0.20574	-0.32493	0.197273	1.48206	1.19173	0	0
4.47	-1.41349	1.46289	-0.214184	0.685474	0.738215	0.975378	0.027402	0.0350328	-0.240164	0.308197	0.151219	0	0	-0.13323	-0.0685257	-0.213719	0	0.0679094	0	0	-0.139594	0.163705	0.135084	-0.371611	-0.33363	-0.104063	1.6028	1.3038	0	0	-0.195919	-0.325662	0.200177	1.47811	1.19059	0	0
4.48	-1.40864	1.46235	-0.220084	0.685236	0.738364	0.975412	0.0264205	0.0358093	-0.239425	0.307067	0.150729	0	0	-0.13389	-0.0690509	-0.214567	0	0.0681203	0	0	-0.14083	0.163185	0.13617	-0.361917	-0.333392	-0.101799	1.59911	1.31193	0	0	-0.186087	-0.32645	0.203107	1.47435	1.18941	0	0
4.49	-1.40351	1.4619	-0.226097	0.685015	0.738521	0.97544	0.0254666	0.0363936	-0.239059	0.306124	0.150394	0	0	-0.134584	-0.0694822	-0.215414	0	0.0682047	0	0	-0.142094	0.162577	0.137109	-0.351923	-0.3333	-0.099396	1.59502	1.3174	0	0	-0.176086	-0.327153	0.206203	1.47055	1.18844	0	0
4.5	-1.39707	1.46151	-0.233192	0.684819	0.738681	0.975465	0.0244223	0.0368601	-0.238867	0.305413	0.150456	0	0	-0.135385	-0.0698365	-0.216046	0	0.068248	0	0	-0.143532	0.16192	0.13783	-0.341499	-0.333134	-0.0976715	1.59074	1.32332	0	0	-0.165824	-0.327779	0.209609	1.4665	1.18771	0	0
4.51	-1.38974	1.46105	-0.241393	0.684606	0.738832	0.975501	0.0231658	0.0374868	-0.238079	0.304598	0.151	0	0	-0.136394	-0.0702127	-0.216937	0	0.0682769	0	0	-0.14516	0.161265	0.138736	-0.330585	-0.333126	-0.0961595	1.58566	1.32817	0	0	-0.155415	-0.328265	0.213071	1.4622	1.18769	0	0
4.52	-1.38281	1.46054	-0.249495	0.684379	0.738983	0.975537	0.0220403	0.0381384	-0.237196	0.304118	0.151438	0	0	-0.13745	-0.0706213	-0.218014	0	0.0682732	0	0	-0.146836	0.160633	0.139908	-0.319497	-0.333287	-0.094642	1.57997	1.33094	0	0	-0.144977	-0.328758	0.216702	1.45779	1.18856	0	0
4.53	-1.37511	1.46005	-0.258784	0.684136	0.739118	0.975577	0.0208633	0.0386556	-0.236238	0.303407	0.151067	0	0	-0.138841	-0.070856	-0.219136	0	0.0681961	0	0	-0.148594	0.159934	0.141518	-0.30858	-0.333706	-0.0928532	1.57405	1.33381	0	0	-0.134222	-0.329202	0.220809	1.45306	1.19043	0	0
4.54	-1.36673	1.45946	-0.269234	0.683845	0.739185	0.975622	0.0194142	0.0392426	-0.234874	0.302341	0.150696	0	0	-0.14056	-0.0711256	-0.22089	0	0.0684617	0	0	-0.150367	0.159286	0.143578	-0.297787	-0.334232	-0.0910474	1.56823	1.33723	0	0	-0.123348	-0.329463	0.224951	1.44803	1.19283	0	0
4.55	-1.35853	1.4588	-0.279479	0.683565	0.73923	0.975654	0.0179604	0.0398951	-0.233446	0.301385	0.150242	0	0	-0.142321	-0.0714427	-0.222625	0	0.0685042	0	0	-0.152245	0.158704	0.145638	-0.286757	-0.334831	-0.0894446	1.56241	1.34024	0	0	-0.112382	-0.32956	0.228915	1.44328	1.19493	0	0
4.56	-1.35154	1.45808	-0.287985	0.683351	0.739332	0.975671	0.0167355	0.0406242	-0.232374	0.300702	0.149911	0	0	-0.14362	-0.0719064	-0.223815	0	0.0682759	0	0	-0.154122	0.158297	0.147169	-0.275027	-0.335526	-0.0875785	1.55636	1.34255	0	0	-0.101271	-0.32947	0.232334	1.43889	1.19639	0	0
